<svg width="119" height="25" viewBox="0 0 119 25" fill="none" xmlns="http://www.w3.org/2000/svg">
<g clip-path="url(#clip0_286_1046)">
<path d="M55.89 11.7839C55.6317 11.7879 55.3858 11.8944 55.2063 12.0799C55.0264 12.2655 54.9273 12.515 54.9309 12.7736C54.9309 18.2425 50.6934 22.6912 45.4916 22.6912C40.2903 22.6912 36.0359 18.2408 36.0359 12.7736C36.0359 7.30645 40.2736 2.85605 45.4833 2.85605C45.7412 2.85161 45.9867 2.74494 46.1662 2.55942C46.3457 2.3739 46.4444 2.12466 46.4409 1.86632C46.4444 1.60798 46.3457 1.35874 46.1662 1.17322C45.9867 0.987702 45.7412 0.881031 45.4833 0.876587C39.2182 0.876587 34.1211 6.21371 34.1211 12.7736C34.1211 19.3336 39.2182 24.6707 45.4833 24.6707C51.7485 24.6707 56.8476 19.3336 56.8476 12.7736C56.8512 12.5153 56.7521 12.2661 56.573 12.0805C56.3935 11.895 56.1479 11.7884 55.89 11.7839Z" fill="black"/>
<path d="M72.4795 0.876587C66.2143 0.876587 61.1172 6.21371 61.1172 12.7736C61.1172 19.3336 66.2143 24.6707 72.4795 24.6707C78.7443 24.6707 83.8418 19.3336 83.8418 12.7736C83.8418 6.21371 78.7511 0.876587 72.4795 0.876587ZM81.9183 12.7736C81.9183 18.2425 77.6809 22.6912 72.4795 22.6912C67.2777 22.6912 63.0403 18.2408 63.0403 12.7736C63.0403 7.30645 67.2761 2.85605 72.4795 2.85605C77.6825 2.85605 81.9334 7.30478 81.9334 12.7736H81.9183Z" fill="black"/>
<path d="M17.9284 4.14844C15.1911 1.9325 10.957 0.811035 5.34579 0.811035H1.53308C0.870656 0.811035 0.568945 1.27381 0.568945 1.7045C0.568945 2.13518 0.870656 2.59964 1.53308 2.59964H5.34579C10.5002 2.59964 14.3079 3.58599 16.6609 5.53169C18.6583 7.16661 19.6713 9.56324 19.6713 12.654C19.6713 15.7448 18.66 18.1415 16.6576 19.7781C14.3079 21.722 10.5019 22.7084 5.34579 22.7084H2.42642V11.0242C2.43015 10.9036 2.40921 10.7834 2.3649 10.6712C2.32059 10.559 2.25383 10.457 2.16873 10.3716C2.08364 10.2861 1.982 10.2191 1.87008 10.1744C1.75816 10.1298 1.63831 10.1086 1.51791 10.1121C1.39416 10.1047 1.27021 10.1229 1.15374 10.1655C1.03728 10.208 0.930789 10.2741 0.840866 10.3596C0.750944 10.4451 0.679512 10.5482 0.630997 10.6626C0.582481 10.7769 0.557917 10.8999 0.558832 11.0242V23.5647C0.553941 23.778 0.624382 23.9862 0.757726 24.1525C0.8516 24.2656 0.970648 24.3551 1.10531 24.4138C1.23997 24.4724 1.38648 24.4986 1.53308 24.4903H5.34579C10.9587 24.4903 15.1928 23.3671 17.9301 21.1529C20.3657 19.1599 21.6013 16.2971 21.6013 12.6473C21.6013 8.99744 20.3657 6.14141 17.9284 4.14844Z" fill="black"/>
<path d="M27.7895 0.810699C27.6659 0.80329 27.5422 0.821394 27.4259 0.863882C27.3097 0.906366 27.2033 0.972334 27.1136 1.05769C27.0238 1.14304 26.9525 1.24597 26.9041 1.36008C26.8557 1.47419 26.8311 1.59705 26.8321 1.72105V23.5846C26.8321 23.8337 26.9308 24.0726 27.1066 24.2486C27.2823 24.4248 27.5207 24.5237 27.7692 24.5237C28.0178 24.5237 28.2562 24.4248 28.4319 24.2486C28.6077 24.0726 28.7064 23.8337 28.7064 23.5846V1.72105C28.7099 1.59981 28.6886 1.47914 28.6437 1.36652C28.5987 1.2539 28.5312 1.15174 28.4452 1.06637C28.3592 0.981005 28.2566 0.914259 28.1438 0.870279C28.031 0.826294 27.9104 0.806017 27.7895 0.810699Z" fill="black"/>
<path d="M109.68 1.72271L109.665 1.68724C109.596 1.53243 109.485 1.40091 109.343 1.30858C109.201 1.21626 109.035 1.1671 108.866 1.16704H108.834C108.656 1.16577 108.483 1.22263 108.34 1.329C108.198 1.43537 108.094 1.58545 108.044 1.75648L103.355 13.2837L98.6839 1.71426L98.6704 1.68386C98.5968 1.52662 98.4794 1.39413 98.3321 1.3024C98.1848 1.21068 98.0145 1.16366 97.841 1.16704C97.669 1.16753 97.5007 1.21869 97.357 1.31416C97.2133 1.40964 97.1011 1.54523 97.0338 1.70413L88.2402 23.5154C88.1677 23.6332 88.1295 23.7688 88.1291 23.9072C88.1244 24.1133 88.1916 24.3146 88.319 24.4767C88.4459 24.6389 88.6254 24.7517 88.8264 24.7959C89.0274 24.8402 89.2376 24.8132 89.4206 24.7194C89.6041 24.6258 89.7494 24.4712 89.8314 24.2821L97.843 4.44362L102.404 15.6533L99.2336 23.5154C99.1607 23.6331 99.1225 23.7688 99.1221 23.9072C99.1169 24.1139 99.1842 24.316 99.3116 24.4786C99.4389 24.6412 99.6188 24.7543 99.8206 24.7985C100.022 24.8426 100.233 24.8151 100.416 24.7206C100.6 24.626 100.745 24.4704 100.826 24.2805L103.355 18.0313L105.883 24.2805L105.895 24.3092C105.98 24.4954 106.126 24.6464 106.31 24.7369C106.493 24.8275 106.702 24.8518 106.901 24.806C107.1 24.7602 107.278 24.6469 107.403 24.4854C107.529 24.3238 107.595 24.1238 107.59 23.919C107.591 23.7813 107.553 23.6463 107.481 23.5289L104.302 15.6533L108.865 4.44362L116.869 24.2687L116.881 24.2973C116.966 24.4835 117.113 24.6346 117.296 24.7251C117.48 24.8156 117.688 24.84 117.887 24.7942C118.087 24.7483 118.264 24.6351 118.39 24.4735C118.515 24.3119 118.581 24.1119 118.577 23.9072V23.7062L109.68 1.72271Z" fill="black"/>
</g>
<defs>
<clipPath id="clip0_286_1046">
<rect width="119" height="25" fill="white"/>
</clipPath>
</defs>
</svg>
